# xmcd CD database file
#
# Track frame offsets:
#	150
#	78015
#	115453
#	166968
#	234520
#	279905
#
# Disc length: 4792 seconds
#
# Revision: 1
# Processed by: cddbd v1.5.2PL0 Copyright (c) Steve Scherf et al.
# Submitted via: CDex 1.70beta2
#
DISCID=4012b606
DTITLE=Peter Brötzmann - The Complete Machine Gun Sessions
DYEAR=1968
DGENRE=Jazz
TTITLE0=Machine Gun
TTITLE1=Responsible/For Jan Van Den Ven
TTITLE2=Music for Han Bennink
TTITLE3=Machine Gun, second take
TTITLE4=Responsible/For Jan Van Den Ven, first take
TTITLE5=Machine Gun (Live)
EXTD=YEAR: 1968
EXTT0=
EXTT1=
EXTT2=
EXTT3=
EXTT4=
EXTT5=
PLAYORDER=
